# xmcd
#
# Track frame offsets:
#	150
#	14181
#	40213
#	57448
#	76379
#	95976
#	118603
#	137790
#	154727
#	174837
#
# Disc length: 2836 seconds
#
# Revision: 1
# Processed by: cddbd v1.5.1PL2 Copyright (c) Steve Scherf et al.
# Submitted via: audiograbber 1.83.01
#
DISCID=870b120a
DTITLE=peter kranz blues band - peter kranz blues band
DYEAR=1998
DGENRE=Blues
TTITLE0=heartbreaks make you strong
TTITLE1=can´t get next to you
TTITLE2=blues as  blues can get 
TTITLE3=motivation of love
TTITLE4=sensitive kind
TTITLE5=moth to a flame
TTITLE6=precious gift
TTITLE7=victor the cajun
TTITLE8=since you´ve been gone
TTITLE9=change my life
EXTD=
EXTT0=
EXTT1=
EXTT2=
EXTT3=
EXTT4=
EXTT5=
EXTT6=
EXTT7=
EXTT8=
EXTT9=
PLAYORDER=
